<?xml version="1.0" encoding="iso-8859-1"?>
<!-- Generator: Adobe Illustrator 16.0.0, SVG Export Plug-In . SVG Version: 6.00 Build 0)  -->
<!DOCTYPE svg PUBLIC "-//W3C//DTD SVG 1.1//EN" "http://www.w3.org/Graphics/SVG/1.1/DTD/svg11.dtd">
<svg version="1.1" id="Layer_1" xmlns="http://www.w3.org/2000/svg" xmlns:xlink="http://www.w3.org/1999/xlink" x="0px" y="0px"
	 width="200.467px" height="256.922px" viewBox="0 0 200.467 256.922" style="enable-background:new 0 0 200.467 256.922;"
	 xml:space="preserve">
<g>
	<g>
		<radialGradient id="SVGID_1_" cx="95.9229" cy="43.2188" r="64.9692" gradientUnits="userSpaceOnUse">
			<stop  offset="0" style="stop-color:#FFA03F"/>
			<stop  offset="1" style="stop-color:#FF022A"/>
		</radialGradient>
		<circle style="fill-rule:evenodd;clip-rule:evenodd;fill:url(#SVGID_1_);" cx="69.654" cy="57.745" r="21.195"/>
		<path style="fill-rule:evenodd;clip-rule:evenodd;fill:#2B2B2B;" d="M126.369,197.743c1.96,0,3.923,0,5.885,0
			c2.491,0,5.013-0.283,7.468-0.842c18.651-4.227,32.797-18.98,35.949-37.765c2.024-12.054-0.33-23.146-7.045-33.34
			c-10.757-16.33-21.635-32.538-32.438-48.838c-1.227-1.848-2.77-3.184-4.94-3.73c-3.331-0.839-6.536,0.416-8.523,3.375
			c-4.122,6.135-8.208,12.299-12.311,18.448c-6.162,9.244-12.32,18.49-18.482,27.73c-3.824,5.735-7.191,11.695-8.533,18.556
			c-3.472,17.757,1.374,32.914,14.643,45.186c7.674,7.1,16.936,10.522,27.384,11.394
			C125.738,197.944,126.054,197.743,126.369,197.743z"/>
		<radialGradient id="SVGID_2_" cx="224.4697" cy="31.5396" r="307.2504" gradientUnits="userSpaceOnUse">
			<stop  offset="0" style="stop-color:#FFA03F"/>
			<stop  offset="1" style="stop-color:#FF022A"/>
		</radialGradient>
		<path style="fill-rule:evenodd;clip-rule:evenodd;fill:url(#SVGID_2_);" d="M152.309,0H48.157C21.56,0,0,21.562,0,48.158v104.155
			c0,26.598,21.56,48.155,48.157,48.155h104.151c26.597,0,48.158-21.558,48.158-48.155V48.158C200.467,21.562,178.905,0,152.309,0z
			 M71.409,129.755c-3.064,0.772-6.023-0.374-7.855-3.102c-3.799-5.654-7.565-11.332-11.346-16.998
			c-5.675-8.518-11.351-17.039-17.03-25.556c-3.524-5.285-6.633-10.777-7.865-17.101c-3.205-16.366,1.266-30.337,13.492-41.645
			c7.077-6.546,15.613-10.057,25.239-10.86c0.295-0.026,0.579-0.125,0.869-0.194c1.809,0,3.621,0,5.425,0
			c2.296,0.371,4.621,0.617,6.889,1.131c17.185,3.897,30.227,17.67,33.127,34.984c1.866,11.113-0.299,21.425-6.491,30.816
			c-9.915,15.057-19.94,30.036-29.899,45.061C74.832,127.996,73.411,129.251,71.409,129.755z M172.042,157.46
			c-2.905,17.313-15.943,31.09-33.134,34.984c-2.263,0.514-4.587,0.76-6.884,1.131c-1.808,0-3.616,0-5.424,0
			c-0.29-0.066-0.581-0.169-0.87-0.195c-9.63-0.802-18.167-4.313-25.239-10.857c-12.229-11.31-16.696-25.28-13.496-41.646
			c1.237-6.324,4.34-11.815,7.865-17.102c5.679-8.516,11.354-17.035,17.034-25.555c3.781-5.667,7.547-11.344,11.347-16.998
			c1.832-2.728,4.785-3.874,7.855-3.101c2.001,0.504,3.423,1.759,4.554,3.462c9.958,15.023,19.984,30.006,29.898,45.058
			C171.737,136.037,173.907,146.35,172.042,157.46z"/>
	</g>
	<g>
		<path style="fill:#2B2B2B;" d="M4.32,215.239h23.315v7.935H13.137v6.073h13.029v7.593H13.137v12.686H4.32V215.239z"/>
		<path style="fill:#2B2B2B;" d="M30.528,241.297v-18.271h8.621v15.625c0,2.449,1.225,3.771,3.037,3.771
			c1.861,0,3.184-1.322,3.184-3.771v-15.625h8.621v26.499h-8.621v-3.478c-1.469,2.106-3.625,4.017-7.004,4.017
			C33.418,250.064,30.528,246.685,30.528,241.297z"/>
		<path style="fill:#2B2B2B;" d="M57.323,236.644v-0.539c0-7.983,4.996-13.665,12-13.665c7.837,0,11.755,6.073,11.755,14.155
			c0,0.343,0,1.763-0.049,2.449h-15.38c0.637,2.841,2.547,4.31,5.094,4.31c2.106,0,3.821-0.979,5.437-2.498l4.114,4.898
			c-2.498,2.645-5.73,4.359-10.139,4.359C62.662,250.113,57.323,244.921,57.323,236.644z M73.045,234.194
			c-0.245-3.281-1.616-5.094-3.723-5.094c-2.057,0-3.429,1.714-3.771,5.094H73.045z"/>
		<path style="fill:#2B2B2B;" d="M84.607,214.063h8.571v35.462h-8.571V214.063z"/>
		<path style="fill:#2B2B2B;" d="M95.53,244.97l4.702-6.416c2.792,2.302,5.976,3.869,9.306,3.869c2.352,0,3.576-1.028,3.576-2.498
			v-0.049c0-1.371-1.029-2.204-5.045-3.624c-6.465-2.204-11.021-4.556-11.021-10.776v-0.146c0-6.221,4.751-10.58,12.245-10.58
			c4.604,0,8.67,1.273,12.246,4.163l-4.459,6.563c-2.35-1.813-5.191-3.135-7.982-3.135c-2.008,0-3.135,0.979-3.135,2.253v0.05
			c0,1.518,1.076,2.302,5.436,3.918c6.516,2.106,10.58,4.751,10.58,10.58v0.098c0,6.661-5.143,10.776-12.49,10.776
			C104.396,250.016,99.547,248.448,95.53,244.97z"/>
		<path style="fill:#2B2B2B;" d="M125.313,223.026h8.619v3.38c1.568-2.105,3.527-3.918,7.055-3.918
			c5.289,0,9.893,4.408,9.893,13.273v0.882c0,9.013-4.555,13.421-9.893,13.421c-3.527,0-5.535-1.764-7.055-3.723v10.58h-8.619
			V223.026z M142.407,236.595v-0.637c0-3.674-1.813-6.123-4.311-6.123s-4.311,2.449-4.311,6.123v0.637
			c0,3.673,1.813,6.122,4.311,6.122S142.407,240.268,142.407,236.595z"/>
		<path style="fill:#2B2B2B;" d="M153.479,236.692v-0.734c0-7.788,5.387-13.519,12.881-13.519c7.445,0,12.834,5.633,12.834,13.47
			v0.734c0,7.788-5.389,13.519-12.932,13.519C158.817,250.162,153.479,244.529,153.479,236.692z M170.769,236.546v-0.441
			c0-3.674-1.762-6.27-4.457-6.27c-2.791,0-4.408,2.547-4.408,6.221v0.44c0,3.674,1.764,6.27,4.457,6.27
			C169.104,242.766,170.769,240.219,170.769,236.546z"/>
		<path style="fill:#2B2B2B;" d="M183.702,242.325v-12.393h-2.645v-6.906h2.645v-6.612h8.57v6.612h5.193v6.906h-5.193v10.434
			c0,1.567,0.736,2.204,2.205,2.204c0.98,0,1.959-0.245,2.939-0.686v6.759c-1.52,0.833-3.527,1.372-5.83,1.372
			C186.788,250.016,183.702,247.958,183.702,242.325z"/>
	</g>
</g>
</svg>
