<?xml version="1.0" encoding="utf-8"?>
<!-- Generator: Adobe Illustrator 16.0.0, SVG Export Plug-In . SVG Version: 6.00 Build 0)  -->
<!DOCTYPE svg PUBLIC "-//W3C//DTD SVG 1.1//EN" "http://www.w3.org/Graphics/SVG/1.1/DTD/svg11.dtd">
<svg version="1.1" id="Capa_1" xmlns="http://www.w3.org/2000/svg" xmlns:xlink="http://www.w3.org/1999/xlink" x="0px" y="0px"
	 width="150px" height="150px" viewBox="0 0 150 150" enable-background="new 0 0 150 150" xml:space="preserve">
<path fill="#FFFFFF" d="M0,0v150l150-0.078V0H0z M102.541,23.426c0-1.822,0.65-3.399,1.953-4.733
	c1.301-1.333,2.896-2.001,4.783-2.001h16.992c1.89,0,3.483,0.667,4.785,2.001c1.305,1.334,1.954,2.911,1.954,4.733V39.53
	c0,1.887-0.649,3.48-1.954,4.782c-1.302,1.303-2.896,1.953-4.785,1.953h-16.992c-1.887,0-3.482-0.65-4.784-1.953
	c-1.302-1.301-1.952-2.896-1.952-4.782V23.426L102.541,23.426z M53.859,54.023c5.891-5.692,12.973-8.541,21.24-8.541
	c8.333,0,15.443,2.849,21.336,8.541c5.895,5.695,8.838,12.576,8.838,20.645c0,8.066-2.943,14.95-8.838,20.643
	c-5.894,5.695-13.002,8.543-21.336,8.543c-8.268,0-15.348-2.852-21.24-8.543c-5.893-5.691-8.839-12.574-8.839-20.643
	C45.021,66.6,47.967,59.719,53.859,54.023z M18.41,130.938c-1.14-1.137-1.709-2.553-1.709-4.242V63.443h13.77
	c-1.301,4.1-1.952,8.363-1.952,12.788c0,12.496,4.557,23.147,13.671,31.969c9.116,8.814,20.085,13.225,32.911,13.225
	c8.463,0,16.276-2.018,23.438-6.052c7.162-4.037,12.822-9.519,16.992-16.448c4.167-6.93,6.251-14.494,6.251-22.693
	c0-4.421-0.653-8.686-1.956-12.785h13.186v63.25l0,0l0,0c0,1.689-0.588,3.105-1.76,4.244c-1.174,1.14-2.57,1.707-4.201,1.707H22.657
	C20.965,132.646,19.549,132.077,18.41,130.938z"/>
</svg>
