<?xml version="1.0" encoding="utf-8"?>
<!-- Generator: Adobe Illustrator 16.0.0, SVG Export Plug-In . SVG Version: 6.00 Build 0)  -->
<!DOCTYPE svg PUBLIC "-//W3C//DTD SVG 1.1//EN" "http://www.w3.org/Graphics/SVG/1.1/DTD/svg11.dtd">
<svg version="1.1" id="Layer_1" xmlns="http://www.w3.org/2000/svg" xmlns:xlink="http://www.w3.org/1999/xlink" x="0px" y="0px"
	 width="150px" height="150px" viewBox="231 321 150 150" enable-background="new 231 321 150 150" xml:space="preserve">
<g>
	<path fill="#FFFFFF" d="M312.23,388.368v-0.219c-0.045,0.074-0.106,0.147-0.146,0.219H312.23z"/>
	<path fill="#FFFFFF" d="M231,321v150h150V321H231z M277.656,445.616h-22.255v-66.955h22.255V445.616z M266.528,369.523h-0.147
		c-7.465,0-12.304-5.143-12.304-11.572c0-6.57,4.98-11.567,12.597-11.567c7.619,0,12.3,4.998,12.446,11.567
		C279.12,364.38,274.292,369.523,266.528,369.523z M357.923,445.616h-22.261v-35.821c0-8.997-3.216-15.138-11.272-15.138
		c-6.153,0-9.81,4.135-11.42,8.14c-0.586,1.432-0.739,3.42-0.739,5.427v37.393h-22.265c0,0,0.298-60.673,0-66.955h22.265v9.488
		c2.958-4.552,8.237-11.06,20.063-11.06c14.65,0,25.63,9.567,25.63,30.131V445.616z"/>
</g>
</svg>
