<?xml version="1.0" standalone="no"?>
<!DOCTYPE svg PUBLIC "-//W3C//DTD SVG 20010904//EN"
        "http://www.w3.org/TR/2001/REC-SVG-20010904/DTD/svg10.dtd">
<svg version="1.0" xmlns="http://www.w3.org/2000/svg"
     width="96.000000pt" height="96.000000pt" viewBox="0 0 96.000000 96.000000"
     preserveAspectRatio="xMidYMid meet">
    <metadata>
        Created by potrace 1.15, written by Peter Selinger 2001-2017
    </metadata>
    <g transform="translate(0.000000,96.000000) scale(0.100000,-0.100000)"
       fill="#000000" stroke="none">
        <path d="M58 944 c-57 -30 -58 -37 -58 -464 0 -429 1 -434 60 -465 43 -22 797
-22 840 0 59 31 60 36 60 465 0 429 -1 434 -60 465 -43 22 -801 22 -842 -1z
m853 -33 l29 -29 0 -402 0 -402 -29 -29 -29 -29 -402 0 -402 0 -29 29 -29 29
0 402 0 402 29 29 29 29 402 0 402 0 29 -29z"/>
        <path d="M117 724 c-4 -4 -7 -106 -7 -226 l0 -218 30 0 30 0 0 60 0 60 310 0
310 0 0 -60 0 -60 30 0 30 0 0 85 0 85 -340 0 -339 0 -3 138 c-3 129 -4 137
-23 140 -12 2 -24 0 -28 -4z"/>
        <path d="M358 654 c-5 -4 -8 -29 -8 -55 l0 -48 -67 -3 c-60 -3 -68 -5 -68 -23
0 -20 8 -20 318 -23 l317 -2 0 45 c0 35 -5 47 -22 58 -14 9 -96 21 -208 31
-102 10 -201 20 -220 23 -19 2 -38 1 -42 -3z"/>
    </g>
</svg>
