<svg viewBox="0 0 512 512" xmlns="http://www.w3.org/2000/svg"><path d="m244.203125 496.710938c-128.523437-6.195313-229.203125-111.925782-229.203125-240.710938 0-132.886719 108.113281-241 241-241 62.796875 0 122.253906 24.03125 167.417969 67.664062 2.980469 2.878907 7.730469 2.796876 10.605469-.183593 2.878906-2.976563 2.796874-7.726563-.183594-10.601563-47.976563-46.351562-111.136719-71.878906-177.839844-71.878906-68.378906 0-132.667969 26.628906-181.019531 74.980469-48.351563 48.351562-74.980469 112.640625-74.980469 181.019531 0 66.199219 25.179688 129.003906 70.902344 176.84375 45.566406 47.679688 106.859375 75.683594 172.578125 78.847656.125.007813.246093.007813.367187.007813 3.976563 0 7.292969-3.125 7.488282-7.136719.199218-4.136719-2.992188-7.65625-7.132813-7.851562zm0 0"/><path d="m454.953125 94.914062c-2.605469-3.21875-7.332031-3.710937-10.546875-1.101562-3.21875 2.605469-3.710938 7.332031-1.105469 10.546875 34.628907 42.714844 53.699219 96.570313 53.699219 151.640625 0 125.734375-98.121094 231.308594-223.382812 240.355469-4.132813.296875-7.238282 3.890625-6.941407 8.023437.285157 3.945313 3.578125 6.957032 7.472657 6.957032.183593 0 .363281-.007813.546874-.019532 64.382813-4.648437 124.1875-33.269531 168.398438-80.589844 44.433594-47.554687 68.90625-109.609374 68.90625-174.726562 0-58.5-20.257812-115.707031-57.046875-161.085938zm0 0"/><path d="m484.269531 256c0-60.972656-23.742187-118.296875-66.859375-161.410156-43.113281-43.117188-100.4375-66.859375-161.410156-66.859375s-118.296875 23.742187-161.410156 66.859375c-43.117188 43.113281-66.859375 100.4375-66.859375 161.410156s23.742187 118.296875 66.859375 161.410156c43.113281 43.117188 100.4375 66.859375 161.410156 66.859375s118.296875-23.742187 161.410156-66.859375c43.117188-43.113281 66.859375-100.4375 66.859375-161.410156zm-228.269531 213.269531c-117.597656 0-213.269531-95.671875-213.269531-213.269531s95.671875-213.269531 213.269531-213.269531 213.269531 95.671875 213.269531 213.269531-95.671875 213.269531-213.269531 213.269531zm0 0"/><path d="m276.269531 130.832031h-69.097656c-13.78125 0-24.996094 11.214844-24.996094 24.996094v46.015625c0 4.140625 3.355469 7.5 7.5 7.5s7.5-3.359375 7.5-7.5v-46.015625c0-5.511719 4.484375-9.996094 9.996094-9.996094h69.097656c18.105469 0 35.117188 7.109375 47.894531 20.011719 12.777344 12.902344 19.71875 29.984375 19.542969 48.101562-.355469 36.824219-31.039062 66.78125-68.398437 66.78125h-20.144532c-4.144531 0-7.5 3.359376-7.5 7.5v75.773438c0 5.238281-4.261718 9.5-9.5 9.5h-31.488281c-5.238281 0-9.5-4.261719-9.5-9.5v-131.84375c0-4.144531-3.355469-7.5-7.5-7.5s-7.5 3.355469-7.5 7.5v131.84375c0 13.507812 10.988281 24.5 24.5 24.5h31.488281c13.507813 0 24.5-10.992188 24.5-24.5v-68.273438h12.644532c45.550781 0 82.964844-36.621093 83.398437-81.636718.214844-22.148438-8.269531-43.03125-23.882812-58.800782-15.621094-15.769531-36.417969-24.457031-58.554688-24.457031zm0 0"/><path d="m255.164062 230.238281h21.101563c9.351563 0 16.957031-7.605469 16.957031-16.960937 0-9.347656-7.605468-16.957032-16.957031-16.957032h-21.101563c-4.144531 0-7.5 3.359376-7.5 7.5v18.917969c0 4.144531 3.355469 7.5 7.5 7.5zm7.5-18.917969h13.601563c1.082031 0 1.957031.878907 1.957031 1.957032 0 1.082031-.875 1.960937-1.957031 1.960937h-13.601563zm0 0"/></svg>