<?xml version="1.0" encoding="iso-8859-1"?>
<!-- Generator: Adobe Illustrator 19.0.0, SVG Export Plug-In . SVG Version: 6.00 Build 0)  -->
<svg version="1.1" id="Layer_1" xmlns="http://www.w3.org/2000/svg"  x="0px" y="0px"
	 viewBox="0 0 512.001 512.001" style="enable-background:new 0 0 512.001 512.001;" xml:space="preserve">
<g>
	<g>
		<path d="M126.296,293.411c-20.734,0-37.603,16.869-37.603,37.603v69.067c0,20.734,16.869,37.603,37.603,37.603
			s37.603-16.869,37.603-37.603v-69.067C163.899,310.279,147.03,293.411,126.296,293.411z M147.55,400.081
			c0,11.719-9.535,21.254-21.254,21.254s-21.254-9.535-21.254-21.254v-69.067c0-11.719,9.535-21.254,21.254-21.254
			s21.254,9.535,21.254,21.254V400.081z"/>
	</g>
</g>
<g>
	<g>
		<path d="M212.765,293.411c-20.734,0-37.603,16.868-37.603,37.603v69.067c0,20.734,16.869,37.603,37.603,37.603
			s37.603-16.869,37.603-37.603v-69.067C250.367,310.28,233.498,293.411,212.765,293.411z M234.018,400.081
			c0,11.719-9.535,21.254-21.254,21.254s-21.254-9.535-21.254-21.254v-69.067c0-11.719,9.535-21.254,21.254-21.254
			c11.72,0,21.254,9.535,21.254,21.254V400.081z"/>
	</g>
</g>
<g>
	<g>
		<path d="M299.234,293.411c-20.734,0-37.603,16.868-37.603,37.603v69.067c0,20.734,16.869,37.603,37.603,37.603
			c20.734,0,37.603-16.869,37.603-37.603v-69.067C336.837,310.28,319.968,293.411,299.234,293.411z M320.488,400.081
			c0,11.719-9.535,21.254-21.254,21.254c-11.719,0-21.254-9.535-21.254-21.254v-69.067c0-11.719,9.535-21.254,21.254-21.254
			c11.719,0,21.254,9.535,21.254,21.254V400.081z"/>
	</g>
</g>
<g>
	<g>
		<path d="M385.703,293.411c-20.734,0-37.603,16.869-37.603,37.603v69.067c0,20.734,16.869,37.603,37.603,37.603
			c20.734,0,37.603-16.869,37.603-37.603v-69.067C423.306,310.279,406.438,293.411,385.703,293.411z M406.957,400.081
			c0,11.719-9.535,21.254-21.254,21.254c-11.719,0-21.254-9.535-21.254-21.254v-69.067c0-11.719,9.535-21.254,21.254-21.254
			c11.719,0,21.254,9.535,21.254,21.254V400.081z"/>
	</g>
</g>
<g>
	<g>
		<path d="M125.208,201.576c-15.029,0-27.256,12.227-27.256,27.256c0,15.029,12.227,27.256,27.256,27.256
			c15.029,0,27.256-12.227,27.256-27.256C152.464,213.802,140.237,201.576,125.208,201.576z M125.208,239.737
			c-6.014,0-10.907-4.893-10.907-10.907c0-6.014,4.893-10.907,10.907-10.907c6.014,0,10.907,4.893,10.907,10.907
			C136.115,234.845,131.222,239.737,125.208,239.737z"/>
	</g>
</g>
<g>
	<g>
		<path d="M386.792,201.576c-15.029,0-27.256,12.227-27.256,27.256c0,15.029,12.227,27.256,27.256,27.256
			c15.029,0,27.256-12.227,27.256-27.256C414.048,213.802,401.821,201.576,386.792,201.576z M386.792,239.737
			c-6.014,0-10.907-4.893-10.907-10.907c0-6.014,4.893-10.907,10.907-10.907s10.907,4.893,10.907,10.907
			C397.699,234.845,392.806,239.737,386.792,239.737z"/>
	</g>
</g>
<g>
	<g>
		<path d="M484.246,186.424h-63.417c-7.275-5.852-16.075-9.881-25.707-11.367l-60.12-112.463
			c-5.7-10.663-16.758-17.287-28.858-17.287c-5.339,0-10.663,1.338-15.394,3.867c-7.703,4.118-13.341,10.988-15.875,19.346
			c-2.535,8.358-1.663,17.202,2.454,24.906l49.715,92.998h-142.09l49.715-92.998c4.118-7.703,4.989-16.548,2.453-24.906
			c-2.535-8.359-8.173-15.229-15.875-19.346c-7.701-4.116-16.546-4.988-24.905-2.455c-8.358,2.535-15.229,8.173-19.346,15.875
			l-8.948,16.739c-2.129,3.982-0.627,8.934,3.355,11.063c3.982,2.128,8.934,0.625,11.063-3.355l8.948-16.739
			c2.059-3.852,5.494-6.67,9.673-7.938c4.179-1.265,8.602-0.832,12.452,1.227c3.852,2.059,6.67,5.494,7.938,9.673
			c1.268,4.179,0.832,8.602-1.227,12.452c0,0-56.166,105.066-56.17,105.072c0.099-0.185-2.544-2.406-2.807-2.639
			c-4.092-3.626-8.706-6.64-13.687-8.897c-3.916-1.776-8.045-3.08-12.269-3.877c-0.022-0.004-0.044-0.01-0.065-0.014l31.182-58.33
			c2.129-3.982,0.626-8.934-3.356-11.063c-3.982-2.128-8.934-0.627-11.063,3.355l-35.139,65.733
			c-9.632,1.486-18.431,5.516-25.706,11.367H27.754C12.45,186.424,0,198.875,0,214.178v29.305c0,14.997,11.959,27.246,26.84,27.73
			l41.554,189.069c0.824,3.748,4.145,6.42,7.984,6.42h359.244c3.838,0,7.16-2.67,7.984-6.42l30.432-138.468
			c0.969-4.41-1.82-8.771-6.229-9.74c-4.41-0.969-8.77,1.819-9.739,6.229l-29.022,132.049H82.951L43.584,271.237h47.528
			c12.975,10.445,30.598,14.405,46.796,10.503c7.791-1.877,15.152-5.476,21.396-10.503c0,0,193.389,0,193.393,0
			c1.232,0.008,2.967,2.256,3.954,2.973c1.974,1.435,4.197,2.496,6.388,3.551c7.373,3.549,15.564,5.481,23.752,5.481
			c12.288,0,24.525-4.301,34.096-12.006h47.526l-3.158,14.37c-0.969,4.41,1.819,8.77,6.229,9.74c4.41,0.973,8.77-1.82,9.74-6.229
			l3.935-17.903c14.882-0.484,26.841-12.734,26.841-27.73V214.18C512,198.875,499.55,186.424,484.246,186.424z M33.418,254.888
			h-5.664c-6.289,0-11.405-5.116-11.405-11.405v-29.305c0-6.289,5.116-11.405,11.405-11.405c0,0,49.7,0,49.688,0.024
			c-4.267,8.001-6.645,16.951-6.645,26.033c0,1.068,0.032,2.136,0.096,3.203c0.481,7.966,2.739,15.86,6.561,22.855H33.418z
			 M163.271,228.831c0,0.08-0.005,0.158-0.007,0.238c-0.086,12.975-7.189,25.405-18.206,32.216
			c-5.935,3.669-12.878,5.608-19.85,5.608c-13.099,0-25.701-7.195-32.526-18.345c-3.613-5.902-5.536-12.799-5.536-19.717
			c0-14.558,8.602-27.988,21.682-34.277c5.094-2.449,10.724-3.785,16.381-3.785c14.666,0,28.318,8.794,34.514,22.053
			c0.98,2.098,1.769,4.285,2.348,6.527c0.795,3.078,1.2,6.267,1.2,9.448C163.271,228.807,163.271,228.819,163.271,228.831z
			 M172.962,254.89v-0.001c0.005-0.009,0.01-0.018,0.014-0.027c6.144-11.607,8.277-25.182,5.293-38.038
			c-0.87-3.747-2.095-7.444-3.719-10.935l1.608-3.007l0.058-0.107h159.57c0,0,1.665,3.115,1.667,3.118
			c0.216,0.489-1.444,3.446-1.634,3.963c-0.822,2.228-1.501,4.509-2.027,6.824c-1.954,8.581-1.844,17.618,0.423,26.127
			c1.118,4.196,2.741,8.271,4.824,12.083H172.962z M348.312,190.398c-0.131,0.131-0.269,0.252-0.398,0.385L291.749,85.718
			c-2.059-3.851-2.495-8.274-1.227-12.452c1.268-4.179,4.086-7.614,7.938-9.673c2.403-1.285,4.989-1.936,7.686-1.936
			c6.056,0,11.588,3.313,14.439,8.648c0,0,55.798,104.377,56.153,105.043c-0.534-0.923-9.669,2.849-10.498,3.191
			c-6.599,2.729-12.648,6.637-17.727,11.666C348.447,190.27,348.377,190.332,348.312,190.398z M395.042,265.971
			c-2.704,0.601-5.479,0.922-8.25,0.922c-12.496,0-24.515-6.45-31.53-16.771c-4.239-6.236-6.533-13.756-6.533-21.292
			c0-8.291,2.825-16.568,7.873-23.139c4.457-5.804,10.642-10.387,17.58-12.77c4.041-1.389,8.334-2.153,12.611-2.153
			c16.131,0,31.001,10.884,36.131,26.134c1.064,3.164,1.683,6.481,1.87,9.813c0.002,0.04,0.007,0.081,0.009,0.121
			c0.039,0.743,0.056,1.488,0.05,2.232C424.731,246.517,412.059,262.19,395.042,265.971z M484.246,254.888h-5.664
			c0,0-44.019,0-44.022-0.026c-0.158-1.396,2.096-4.703,2.638-6.095c0.862-2.215,1.631-4.467,2.245-6.763
			c1.148-4.283,1.759-8.697,1.759-13.133c0-0.014,0.001-0.027,0.001-0.041s-0.001-0.027-0.001-0.041
			c-0.004-9.031-2.305-18.066-6.656-26.016h49.7c6.289,0,11.405,5.116,11.405,11.405v29.305h0.001
			C495.651,249.772,490.535,254.888,484.246,254.888z"/>
	</g>
</g>
<g>
</g>
<g>
</g>
<g>
</g>
<g>
</g>
<g>
</g>
<g>
</g>
<g>
</g>
<g>
</g>
<g>
</g>
<g>
</g>
<g>
</g>
<g>
</g>
<g>
</g>
<g>
</g>
<g>
</g>
</svg>
