<svg viewBox="0 -31 512 511" xmlns="http://www.w3.org/2000/svg"><path d="m504.808594 217.914062-42.09375-30.679687c-3.011719-2.199219-6.578125-3.359375-10.308594-3.359375h-23.21875v-57.535156c8.457031-6.367188 13.941406-16.484375 13.941406-27.863282 0-19.222656-15.640625-34.855468-34.859375-34.855468h-149.613281c-4.140625 0-7.5 3.355468-7.5 7.5 0 4.140625 3.359375 7.5 7.5 7.5h149.613281c10.949219 0 19.859375 8.90625 19.859375 19.855468 0 10.949219-8.910156 19.859376-19.859375 19.859376h-198.511719c-5.980468-9.472657-8.894531-20.734376-8.140624-32.210938.167968-2.515625.203124-5.019531.160156-7.507812h26.566406c4.144531 0 7.5-3.355469 7.5-7.5 0-4.140626-3.355469-7.5-7.5-7.5h-28.132812c-2.90625-15.011719-9.71875-28.777344-19.867188-39.511719-2.84375-3.011719-7.589844-3.144531-10.601562-.300781-3.011719 2.847656-3.144532 7.59375-.296876 10.605468 12.207032 12.914063 18.476563 31.40625 17.207032 50.730469-1.300782 19.765625 5.914062 39.0625 19.796875 52.945313l152.128906 152.128906c7.550781 7.554687 18.328125 11.234375 28.835937 9.84375 21.09375-2.792969 41.808594 4.222656 56.832032 19.246094 13.148437 13.148437 20.195312 30.632812 19.839844 49.230468-.355469 18.589844-8.082032 35.804688-21.761719 48.472656-25.597657 23.714844-65.839844 23.875-91.609375.371094-16.347656-14.910156-24.421875-36.890625-21.605469-58.804687 1.398437-10.851563-2.179687-21.453125-9.808594-29.085938l-149.449219-149.445312c-14.339843-14.339844-34.167968-21.515625-54.394531-19.679688-15.078125 1.371094-29.335937-2.292969-41.234375-10.566406-13.808594-9.628906-22.824218-24.324219-25.710937-41.742187l35.632812 16.042968c6.339844 2.863282 13.414063 3.082032 19.921875.617188 6.507813-2.464844 11.664063-7.320313 14.511719-13.660156l17.433594-38.707032c2.859375-6.34375 3.078125-13.417968.605469-19.929687-2.464844-6.503907-7.316407-11.65625-13.648438-14.5l-31.226562-14.070313c17.707031-9.203125 37.390624-10.898437 54.71875-4.558594 3.890624 1.421876 8.199218-.578124 9.621093-4.464843 1.421875-3.894531-.578125-8.199219-4.46875-9.621094-23.128906-8.460937-49.441406-5.410156-72.191406 8.375-3.90625 2.367187-6.164063 6.679687-5.886719 11.253906.28125 4.609375 3.066406 8.644531 7.265625 10.539063l36.011719 16.226562c2.683594 1.203125 4.734375 3.386719 5.78125 6.140625.722656 1.90625.890625 3.925781.53125 5.882813h-19.394531c-.011719 0-.027344 0-.039063 0-19.203125.023437-34.820312 15.648437-34.820312 34.855468 0 .78125.03125 1.558594.082031 2.332032l-18.621094-8.382813c-4.015625-1.804687-8.730469-1.328125-12.308593 1.25-3.609376 2.601563-5.5 6.789063-5.058594 11.203125 2.363281 23.535156 14.273437 44.390625 32.6875 57.226563 5.375 3.738281 11.128906 6.710937 17.160156 8.914062v12.855469h-23.21875c-3.730469 0-7.292969 1.164062-10.308594 3.359375l-42.09375 30.679687c-4.503906 3.28125-7.191406 8.570313-7.191406 14.140626v155.363281c0 15.160156 12.335938 27.496093 27.5 27.496093h301.179688c3.4375 4.886719 7.421874 9.441407 11.925781 13.546876 15.65625 14.277343 35.675781 21.410156 55.699219 21.40625 20.246093 0 40.492187-7.289063 56.214843-21.851563 4.332031-4.015625 8.160157-8.40625 11.484375-13.101563h20.496094c15.164062 0 27.5-12.335937 27.5-27.496093v-155.363281c0-5.570313-2.6875-10.859376-7.191406-14.140626zm-420.9375-119.4375c0-10.949218 8.910156-19.855468 19.859375-19.855468 4.136719 0 8.070312 1.269531 11.382812 3.601562l-10.214843 22.679688c-1.207032 2.6875-3.390626 4.742187-6.148438 5.785156-2.753906 1.042969-5.746094.949219-8.4375-.265625l-3.523438-1.582031c-1.90625-3.109375-2.917968-6.6875-2.917968-10.363282zm40.777344 76.707032c9.410156.523437 18.453124 3.527344 26.273437 8.691406h-26.273437zm-26.835938-.386719c3.875.566406 7.828125.859375 11.835938.839844v8.238281h-11.835938zm130.632812 225.117187c1.921876-3.75 3.015626-8 3.015626-12.496093v-26.042969c0-4.144531-3.359376-7.5-7.5-7.5-4.140626 0-7.5 3.355469-7.5 7.5v26.042969c0 6.890625-5.605469 12.496093-12.5 12.496093h-176.460938c-6.894531 0-12.5-5.605468-12.5-12.496093v-155.363281c0-.796876.382812-1.550782 1.027344-2.019532l42.09375-30.679687c.429687-.316407.9375-.480469 1.472656-.480469h107.875l48.992188 48.992188v83.195312c0 4.140625 3.359374 7.5 7.5 7.5 4.140624 0 7.5-3.359375 7.5-7.5v-68.195312l77.230468 77.230468c4.320313 4.320313 6.339844 10.355469 5.542969 16.5625-1.917969 14.894532.292969 29.8125 6.066406 43.253906zm225.433594-200.558593 27.597656 20.113281h-146.417968l27.601562-20.113281c.429688-.3125.9375-.480469 1.472656-.480469h88.273438c.53125 0 1.042969.164062 1.472656.480469zm-89.746094-15.480469c-3.730468 0-7.292968 1.160156-10.308593 3.359375l-44.242188 32.246094c-.167969.003906-.335937.007812-.5.023437l-86.171875-86.171875h164.441406v50.542969zm50.054688-51.054688v51.054688h-11.835938v-50.539062h5.917969c2.015625 0 3.992188-.183594 5.917969-.515626zm82.8125 254.597657c0 6.890625-5.605469 12.496093-12.5 12.496093h-12.09375c4.164062-9.691406 6.46875-20.195312 6.675781-31.089843.433594-22.714844-8.171875-44.066407-24.230469-60.125-18.351562-18.351563-43.648437-26.917969-69.40625-23.511719-5.90625.785156-11.984374-1.304688-16.257812-5.578125l-45.140625-45.140625h170.453125c1.378906 0 2.5 1.121094 2.5 2.5zm0 0"/><path d="m473.761719 247.890625h-20.335938c-4.144531 0-7.5 3.355469-7.5 7.5 0 4.140625 3.355469 7.5 7.5 7.5h20.335938c4.140625 0 7.5-3.359375 7.5-7.5 0-4.144531-3.359375-7.5-7.5-7.5zm0 0"/><path d="m473.761719 266.71875h-20.335938c-4.144531 0-7.5 3.355469-7.5 7.5s3.355469 7.5 7.5 7.5h20.335938c4.140625 0 7.5-3.355469 7.5-7.5s-3.359375-7.5-7.5-7.5zm0 0"/><path d="m159.148438 252.042969h-84c-4.140626 0-7.5 3.355469-7.5 7.5v38.78125c0 4.144531 3.359374 7.5 7.5 7.5h84c4.140624 0 7.5-3.355469 7.5-7.5v-38.78125c0-4.144531-3.355469-7.5-7.5-7.5zm-7.5 38.78125h-69v-23.78125h69zm0 0"/><path d="m440.074219 350.664062-6.261719-6.261718-2.296875-8.570313c-.695313-2.589843-2.714844-4.609375-5.304687-5.304687l-8.570313-2.296875-6.273437-6.273438c-1.894532-1.890625-4.648438-2.632812-7.238282-1.941406l-8.5625 2.289063-8.570312-2.296876c-2.589844-.691406-5.351563.042969-7.246094 1.941407l-6.273438 6.269531-8.570312 2.300781c-2.589844.691407-4.609375 2.714844-5.304688 5.300781l-2.292968 8.570313-6.273438 6.273437c-1.894531 1.894532-2.636718 4.65625-1.941406 7.242188l2.296875 8.574219-2.289063 8.558593c-.691406 2.589844.050782 5.347657 1.941407 7.242188l6.273437 6.273438 2.296875 8.566406c.691407 2.589844 2.714844 4.613281 5.304688 5.304687l8.566406 2.296875 6.265625 6.265625c1.890625 1.890625 4.652344 2.632813 7.238281 1.941407l8.5625-2.289063 8.570313 2.296875c.644531.171875 1.292968.257812 1.941406.257812 1.964844 0 3.878906-.773437 5.304688-2.199218l6.273437-6.273438 8.570313-2.296875c2.585937-.691406 4.609374-2.714843 5.300781-5.300781l2.296875-8.570312 6.273437-6.273438c1.894531-1.894531 2.636719-4.65625 1.941407-7.242188l-2.296876-8.574218 2.289063-8.5625c.691406-2.585938-.046875-5.34375-1.941406-7.238282zm-18.292969 28.707032c-.929688.929687-1.597656 2.089844-1.941406 3.363281l-1.695313 6.324219-6.324219 1.695312c-1.273437.339844-2.433593 1.011719-3.363281 1.941406l-4.632812 4.632813-6.328125-1.695313c-.636719-.171874-1.289063-.253906-1.941406-.253906-.652344 0-1.300782.082032-1.9375.253906l-6.320313 1.6875-4.625-4.625c-.929687-.933593-2.089844-1.601562-3.363281-1.941406l-6.324219-1.695312-1.695313-6.324219c-.34375-1.273437-1.011718-2.433594-1.941406-3.363281l-4.636718-4.636719 1.6875-6.320313c.339843-1.269531.339843-2.605468 0-3.875l-1.695313-6.328124 4.632813-4.632813c.933593-.933594 1.601562-2.09375 1.941406-3.363281l1.695312-6.328125 6.328125-1.695313c1.269531-.34375 2.429688-1.011718 3.363281-1.941406l4.632813-4.632812 6.328125 1.695312c1.269531.339844 2.605469.339844 3.875 0l6.320312-1.6875 4.636719 4.636719c.929688.929687 2.089844 1.597656 3.363281 1.9375l6.328126 1.699219 1.695312 6.324218c.339844 1.273438 1.007812 2.433594 1.9375 3.363282l4.625 4.625-1.6875 6.320312c-.335938 1.269531-.335938 2.605469.003906 3.875l1.691406 6.332031zm0 0"/><path d="m303.96875 291.585938c4.914062 0 9.535156-1.914063 13.007812-5.390626 3.476563-3.476562 5.390626-8.097656 5.390626-13.007812 0-4.917969-1.914063-9.539062-5.390626-13.011719l-95.933593-95.933593c-3.476563-3.476563-8.097657-5.390626-13.011719-5.390626s-9.535156 1.914063-13.007812 5.386719c-3.476563 3.476563-5.390626 8.097657-5.390626 13.011719s1.914063 9.535156 5.390626 13.011719l95.933593 95.933593c3.476563 3.476563 8.09375 5.390626 13.011719 5.390626zm-99.335938-114.335938c0-.523438.128907-1.535156.996094-2.402344.867188-.867187 1.878906-.996094 2.402344-.996094.527344 0 1.539062.128907 2.40625.996094l95.933594 95.9375c.867187.863282.996094 1.875.996094 2.402344 0 .523438-.128907 1.535156-.996094 2.402344-.867188.867187-1.878906.996094-2.402344.996094-.527344 0-1.539062-.128907-2.402344-.996094l-95.9375-95.9375c-.867187-.863282-.996094-1.875-.996094-2.402344zm0 0"/></svg>