<?xml version="1.0" encoding="iso-8859-1"?>
<!-- Generator: Adobe Illustrator 19.0.0, SVG Export Plug-In . SVG Version: 6.00 Build 0)  -->
<svg version="1.1" id="Layer_1" xmlns="http://www.w3.org/2000/svg"  x="0px" y="0px"
	 viewBox="0 0 512 512" style="enable-background:new 0 0 512 512;" xml:space="preserve">
<g>
	<g>
		<path d="M256,55.88c-4.351,0-7.879,3.527-7.879,7.879V448.24c0,4.352,3.528,7.879,7.879,7.879c4.351,0,7.879-3.526,7.879-7.879
			V63.759C263.879,59.407,260.351,55.88,256,55.88z"/>
	</g>
</g>
<g>
	<g>
		<path d="M217.935,269.236l-40.832-33.875c9.962-13.196,15.88-29.607,15.88-47.378c0-43.451-35.35-78.802-78.801-78.802
			c-18.571,0-36.612,6.598-50.801,18.579c-3.325,2.807-3.744,7.778-0.937,11.103c2.807,3.325,7.778,3.744,11.103,0.937
			c11.35-9.583,25.781-14.86,40.635-14.86c34.762,0,63.043,28.281,63.043,63.044c0,27.399-18.653,52.53-45.005,60.414
			c-5.844,1.748-11.939,2.629-18.038,2.629c-27.332,0-52.404-18.554-60.355-44.814c-1.787-5.902-2.688-12.063-2.688-18.229
			c0-8.869,1.82-17.466,5.412-25.551c1.766-3.976-0.025-8.632-4.002-10.398c-3.977-1.769-8.632,0.025-10.399,4.003
			c-4.491,10.111-6.768,20.86-6.768,31.947c0,17.77,5.918,34.181,15.88,47.378L10.43,269.238
			c-12.258,10.172-13.958,28.42-3.786,40.68c5.507,6.636,13.614,10.443,22.244,10.443c6.713,0,13.259-2.364,18.434-6.656l7.725-6.41
			v78.978c0,14.915,12.134,27.05,27.05,27.05c14.916,0,27.05-12.135,27.05-27.05v-40.707h10.071v40.707
			c-0.001,14.914,12.133,27.048,27.049,27.048s27.05-12.135,27.05-27.05v-78.978l7.725,6.41c5.175,4.292,11.721,6.656,18.433,6.656
			c8.63,0,16.739-3.807,22.245-10.443C231.893,297.656,230.193,279.408,217.935,269.236z M209.597,299.854
			c-2.503,3.017-6.192,4.748-10.117,4.748c-3.091,0-5.987-1.046-8.373-3.026l-20.635-17.119c-2.35-1.949-5.616-2.368-8.381-1.067
			c-2.764,1.297-4.529,4.077-4.529,7.131v95.751c0,6.227-5.067,11.293-11.293,11.293c-6.226,0-11.293-5.065-11.293-11.293v-48.585
			c0-4.352-3.528-7.879-7.879-7.879h-25.83v0.001c-4.351,0-7.879,3.526-7.879,7.879v48.585c0,6.227-5.067,11.293-11.293,11.293
			c-6.226,0-11.293-5.065-11.293-11.293v-95.751c0-3.054-1.765-5.833-4.529-7.131c-2.765-1.302-6.03-0.883-8.381,1.067
			l-20.633,17.118c-2.387,1.98-5.283,3.026-8.374,3.026c-3.927,0-7.614-1.73-10.117-4.748c-4.623-5.573-3.852-13.868,1.721-18.491
			c0,0,41.464-34.402,41.465-34.402c-0.101,0.084,9.916,7.465,10.971,8.111c4.225,2.586,8.693,4.772,13.326,6.527
			c8.886,3.366,18.423,5.183,27.931,5.183c1.263,0,2.522-0.035,3.78-0.096c8.987-0.425,18.063-2.471,26.368-5.916
			c7.733-3.208,16.049-7.799,21.954-13.802c4.186,2.501,7.987,6.517,11.752,9.64c6.536,5.423,13.071,10.845,19.607,16.268
			c3.41,2.829,6.82,5.658,10.23,8.487C213.449,285.985,214.221,294.281,209.597,299.854z"/>
	</g>
</g>
<g>
	<g>
		<path d="M501.569,269.236l-40.832-33.875c9.962-13.196,15.88-29.607,15.88-47.378c0-43.451-35.35-78.802-78.801-78.802
			c-19.894,0-38.895,7.445-53.503,20.965c-3.193,2.955-3.387,7.941-0.431,11.134c2.956,3.194,7.941,3.388,11.134,0.43
			c11.686-10.815,26.886-16.771,42.799-16.771c34.762,0,63.043,28.281,63.043,63.045c0,17.009-7.26,33.794-19.519,45.561
			c-11.628,11.16-27.413,17.482-43.524,17.482c-16.276,0-31.131-6.201-42.329-16.364c-0.031-0.029-0.064-0.059-0.096-0.088
			c-13.028-11.87-20.619-28.962-20.619-46.592c0-7.769,1.412-15.379,4.197-22.619c1.562-4.061-0.463-8.619-4.526-10.181
			c-4.061-1.564-8.62,0.463-10.181,4.526c-3.481,9.052-5.247,18.565-5.247,28.276c0,17.77,5.919,34.181,15.88,47.378l-40.833,33.875
			c-12.258,10.172-13.958,28.42-3.786,40.68c5.507,6.636,13.614,10.443,22.244,10.443c6.713,0,13.259-2.364,18.434-6.656
			l0.267-0.222l-15.18,49.152c-0.739,2.39-0.297,4.989,1.188,7.003c1.485,2.013,3.839,3.201,6.34,3.201h15.11v13.435
			c0,14.915,12.134,27.05,27.05,27.05c14.916,0,27.05-12.135,27.05-27.05v-13.435h10.071v13.435c0,14.915,12.134,27.05,27.05,27.05
			c14.916,0,27.05-12.135,27.05-27.05v-13.435c0,0,15.11,0,15.131,0c4.351,0,7.879-3.527,7.879-7.879
			c0-1.018-0.193-1.991-0.544-2.884l-15.007-48.593l0.267,0.222c5.175,4.292,11.721,6.656,18.433,6.656
			c8.63,0,16.739-3.807,22.245-10.443C515.527,297.656,513.828,279.408,501.569,269.236z M493.229,299.855
			c-2.503,3.017-6.192,4.748-10.117,4.748c-3.091,0-5.987-1.046-8.374-3.026l-20.635-17.119c-2.683-2.226-6.508-2.426-9.406-0.487
			c-2.898,1.936-4.18,5.546-3.151,8.876l19.838,64.234h-12.31c-4.351,0-7.879,3.526-7.879,7.879v21.313
			c0,6.227-5.067,11.293-11.293,11.293c-6.226,0-11.293-5.065-11.293-11.293v-21.313c0-4.352-3.528-7.879-7.879-7.879h-25.829
			c-4.351,0-7.879,3.526-7.879,7.879v21.313c0,6.227-5.067,11.293-11.293,11.293c-6.226,0-11.293-5.065-11.293-11.293v-21.313
			c0-4.352-3.528-7.879-7.879-7.879h-12.31l19.838-64.234c1.028-3.33-0.253-6.94-3.151-8.876c-2.897-1.937-6.723-1.737-9.406,0.487
			l-20.634,17.119c-2.387,1.98-5.283,3.026-8.374,3.026c-3.927,0-7.614-1.73-10.117-4.748c-4.623-5.573-3.852-13.868,1.721-18.491
			l41.465-34.402c10.4,9.202,23.153,15.556,36.775,18.275c5.073,1.013,10.279,1.545,15.453,1.545
			c14.702,0,29.365-4.221,41.812-12.042c3.659-2.299,7.176-4.914,10.415-7.779l41.465,34.402
			C497.08,285.987,497.852,294.282,493.229,299.855z"/>
	</g>
</g>
<g>
</g>
<g>
</g>
<g>
</g>
<g>
</g>
<g>
</g>
<g>
</g>
<g>
</g>
<g>
</g>
<g>
</g>
<g>
</g>
<g>
</g>
<g>
</g>
<g>
</g>
<g>
</g>
<g>
</g>
</svg>
