<?xml version="1.0" encoding="iso-8859-1"?>
<!-- Generator: Adobe Illustrator 19.0.0, SVG Export Plug-In . SVG Version: 6.00 Build 0)  -->
<svg version="1.1" id="Layer_1" xmlns="http://www.w3.org/2000/svg" xmlns:xlink="http://www.w3.org/1999/xlink" x="0px" y="0px"
	 viewBox="0 0 512 512" style="enable-background:new 0 0 512 512;" xml:space="preserve">
<g>
	<g>
		<path d="M223.865,308.81c-26.662,0-48.353,21.691-48.353,48.353v8.628c0,4.438,3.597,8.034,8.034,8.034h80.638
			c4.437,0,8.034-3.596,8.034-8.034v-8.628C272.218,330.501,250.527,308.81,223.865,308.81z M256.152,357.757h-0.001H191.58v-0.594
			c0-17.802,14.483-32.286,32.286-32.286c17.803,0,32.286,14.483,32.286,32.286V357.757z"/>
	</g>
</g>
<g>
	<g>
		<path d="M264.184,389.439h-80.638c-4.437,0-8.034,3.596-8.034,8.034s3.597,8.034,8.034,8.034h80.638
			c4.437,0,8.034-3.596,8.034-8.034S268.621,389.439,264.184,389.439z"/>
	</g>
</g>
<g>
	<g>
		<path d="M264.184,417.204h-80.638c-4.437,0-8.034,3.596-8.034,8.034c0,4.438,3.597,8.034,8.034,8.034h80.638
			c4.437,0,8.034-3.596,8.034-8.034C272.218,420.8,268.621,417.204,264.184,417.204z"/>
	</g>
</g>
<g>
	<g>
		<path d="M129.771,29.618c-25.184,0-45.672,20.488-45.672,45.672s20.488,45.673,45.672,45.673s45.672-20.489,45.672-45.673
			S154.955,29.618,129.771,29.618z M129.771,104.896c-16.325,0-29.605-13.281-29.605-29.606c0-16.323,13.28-29.605,29.605-29.605
			c16.324,0,29.605,13.28,29.605,29.605C159.375,91.614,146.095,104.896,129.771,104.896z"/>
	</g>
</g>
<g>
	<g>
		<path d="M368.961,158.264h-33.766c-4.437,0-8.034,3.596-8.034,8.034c0,4.438,3.597,8.034,8.034,8.034h33.766
			c4.437,0,8.034-3.596,8.034-8.034C376.995,161.86,373.398,158.264,368.961,158.264z"/>
	</g>
</g>
<g>
	<g>
		<path d="M471.071,253.783c15.443,0,28.007-12.564,28.007-28.007V186.27c0-15.443-12.564-28.007-28.007-28.007h-69.976
			c-4.437,0-8.034,3.596-8.034,8.034c0,4.438,3.597,8.034,8.034,8.034h69.976c6.583,0,11.939,5.356,11.939,11.939v39.507
			c0,6.583-5.356,11.939-11.939,11.939h-20.852h-48.554H110.334H61.781H40.929c-6.583,0-11.939-5.356-11.939-11.939V186.27
			c0-6.583,5.356-11.939,11.939-11.939h70.5h36.684h154.947c4.437,0,8.034-3.596,8.034-8.034c0-4.438-3.597-8.034-8.034-8.034
			H156.146v-12.464c28.542-10.712,48.915-38.273,48.915-70.51C205.06,33.775,171.286,0,129.771,0s-75.29,33.775-75.29,75.29
			c0,32.238,20.372,59.798,48.915,70.51v12.464H40.929c-15.443,0-28.007,12.564-28.007,28.007v39.507
			c0,15.443,12.564,28.007,28.007,28.007h12.819v205.734H20.956c-4.437,0-8.034,3.596-8.034,8.034v36.415
			c0,4.438,3.597,8.034,8.034,8.034h470.088c4.437,0,8.034-3.596,8.034-8.034v-36.415c0-4.438-3.597-8.034-8.034-8.034h-32.79
			V253.783H471.071z M140.078,158.264h-20.617v-8.397c3.349,0.464,6.735,0.692,10.116,0.707c0.064,0,0.127,0.005,0.192,0.005
			s0.128-0.004,0.193-0.005c3.376-0.014,6.772-0.243,10.116-0.707V158.264z M93.079,121.73c-7.558-5.98-13.626-13.792-17.52-22.61
			c-3.308-7.488-5.011-15.645-5.011-23.83c0-32.655,26.567-59.222,59.222-59.222s59.222,26.567,59.222,59.222
			c0,9.962-2.539,19.855-7.364,28.572c-4.695,8.481-11.479,15.763-19.599,21.057c-9.474,6.176-20.653,9.511-31.963,9.578
			c-3.011,0.018-6.023-0.194-9.001-0.638C110.868,132.334,101.164,128.128,93.079,121.73z M409.698,253.783h32.486v205.735h-32.486
			V253.783z M118.368,253.783h275.264v205.735h-89.279v-27.149c16.254-3.67,28.432-18.216,28.432-35.563v-4.467
			c4.142-0.322,7.405-3.777,7.405-8.002v-26.432c0-21.968-17.872-39.84-39.84-39.84h-6.166
			c-13.769-24.665-40.121-41.391-70.319-41.391c-44.381,0-80.488,36.107-80.488,80.488v102.355h-25.009V253.783z M304.353,376.305
			v-0.001v-19.141c0-4.054-0.316-8.107-0.922-12.115c-0.138-0.912-1.621-10.884-2.417-10.906
			c12.801,0.353,23.108,10.877,23.108,23.764v18.398H304.353z M316.717,392.373v4.435c0,8.396-5.101,15.619-12.364,18.744v-23.179
			H316.717z M288.285,357.164v27.174v75.181h-128.84V357.164c0-35.522,28.899-64.421,64.421-64.421
			c17.023,0,33.583,6.911,45.595,18.966C281.355,323.646,288.285,340.299,288.285,357.164z M69.815,253.783h32.486v205.735H69.815
			V253.783z M483.011,475.585v20.348h-0.001H28.989v-20.348h32.791h48.554h41.077h144.908h105.347h48.554H483.011z"/>
	</g>
</g>
<g>
</g>
<g>
</g>
<g>
</g>
<g>
</g>
<g>
</g>
<g>
</g>
<g>
</g>
<g>
</g>
<g>
</g>
<g>
</g>
<g>
</g>
<g>
</g>
<g>
</g>
<g>
</g>
<g>
</g>
</svg>
