<?xml version="1.0" encoding="iso-8859-1"?>
<!-- Generator: Adobe Illustrator 19.0.0, SVG Export Plug-In . SVG Version: 6.00 Build 0)  -->
<svg version="1.1" id="Layer_1" xmlns="http://www.w3.org/2000/svg"  x="0px" y="0px"
	 viewBox="0 0 512 512" style="enable-background:new 0 0 512 512;" xml:space="preserve">
<g>
	<g>
		<path d="M137.51,38.157c-2.293-3.893-7.309-5.19-11.204-2.899c-7.102,4.182-14.095,8.77-20.784,13.639
			c-3.654,2.66-4.46,7.778-1.801,11.432c1.603,2.202,4.095,3.369,6.624,3.369c1.669,0,3.355-0.511,4.808-1.568
			c6.264-4.559,12.81-8.854,19.457-12.769C138.504,47.068,139.802,42.053,137.51,38.157z"/>
	</g>
</g>
<g>
	<g>
		<path d="M459.374,235.931c6.731-14.781,7.674-31.429,2.656-46.874c-5.019-15.445-15.567-28.36-29.699-36.36
			c-12.195-6.904-20.795-18.74-23.594-32.473c-3.243-15.915-12.264-29.936-25.404-39.483c-13.139-9.546-29.263-13.797-45.399-11.959
			c-13.924,1.585-27.839-2.937-38.174-12.403c-11.978-10.969-27.518-17.01-43.759-17.01c-16.241,0-31.781,6.041-43.759,17.01
			c-10.335,9.465-24.249,13.987-38.174,12.403c-16.137-1.833-32.26,2.415-45.4,11.959c-13.139,9.547-22.161,23.569-25.404,39.483
			c-2.798,13.732-11.397,25.569-23.593,32.473c-14.133,8.001-24.68,20.915-29.699,36.36s-4.076,32.093,2.655,46.874
			c5.808,12.754,5.808,27.384,0,40.138c-6.731,14.781-7.674,31.428-2.655,46.874c5.019,15.445,15.567,28.359,29.699,36.36
			c12.195,6.904,20.794,18.74,23.593,32.473c3.243,15.915,12.265,29.936,25.404,39.483c13.139,9.546,29.263,13.795,45.4,11.959
			c13.924-1.583,27.838,2.937,38.173,12.404c11.978,10.969,27.518,17.01,43.759,17.01c16.241,0,31.781-6.041,43.759-17.01
			c10.335-9.466,24.249-13.983,38.173-12.404c16.138,1.831,32.26-2.415,45.4-11.961s22.161-23.569,25.404-39.483
			c2.798-13.731,11.398-25.567,23.594-32.472c14.134-8.001,24.68-20.915,29.699-36.36c5.019-15.447,4.075-32.093-2.655-46.874
			C453.566,263.315,453.566,248.685,459.374,235.931z M444.479,282.853c10.478,23.009,1.788,49.754-20.213,62.211
			c-16.317,9.238-27.823,25.072-31.566,43.446l8.018,1.634l-8.018-1.633c-5.047,24.773-27.798,41.312-52.918,38.447
			c-18.633-2.115-37.247,3.932-51.076,16.595c-18.644,17.077-46.765,17.077-65.411,0c-12.013-11.001-27.638-17.011-43.748-17.011
			c-2.434,0-4.882,0.138-7.327,0.416c-25.122,2.853-47.871-13.675-52.92-38.448c-3.744-18.374-15.249-34.21-31.566-43.446
			c-22.002-12.457-30.691-39.202-20.212-62.21c7.77-17.066,7.77-36.64-0.001-53.704c-10.479-23.009-1.788-49.755,20.212-62.211
			c16.317-9.237,27.823-25.073,31.566-43.447c5.047-24.773,27.799-41.3,52.92-38.447c18.631,2.118,37.246-3.932,51.075-16.595
			c18.646-17.074,46.766-17.074,65.412,0c13.827,12.663,32.445,18.713,51.075,16.595c25.121-2.862,47.871,13.674,52.919,38.447
			c3.744,18.374,15.249,34.21,31.566,43.447c22.002,12.456,30.691,39.202,20.213,62.211
			C436.708,246.215,436.708,265.788,444.479,282.853z"/>
	</g>
</g>
<g>
	<g>
		<path d="M437.019,74.982C388.667,26.628,324.38,0,255.999,0c-33.765,0-66.605,6.489-97.61,19.288
			c-4.178,1.724-6.166,6.509-4.442,10.686c1.724,4.178,6.508,6.17,10.686,4.442c29.014-11.978,59.754-18.05,91.365-18.05
			c64.009,0,124.185,24.927,169.447,70.187c45.262,45.26,70.187,105.438,70.187,169.447c0,49.446-14.947,96.921-43.223,137.295
			c-2.592,3.701-1.693,8.804,2.009,11.397c1.429,1,3.066,1.481,4.687,1.481c2.579,0,5.118-1.217,6.71-3.489
			C496.03,359.545,512,308.823,512,256.001C512,187.62,485.371,123.333,437.019,74.982z"/>
	</g>
</g>
<g>
	<g>
		<path d="M444.084,417.556c-3.329-3.058-8.505-2.839-11.562,0.491c-22.234,24.208-48.644,43.278-78.496,56.681
			c-30.895,13.872-63.877,20.905-98.027,20.905c-64.009,0-124.185-24.927-169.447-70.186
			c-45.26-45.26-70.186-105.437-70.186-169.446c0-33.364,6.727-65.648,19.991-95.955c12.814-29.276,31.097-55.353,54.342-77.508
			c3.272-3.117,3.396-8.297,0.278-11.57c-3.118-3.27-8.298-3.395-11.57-0.277c-24.824,23.66-44.353,51.515-58.043,82.792
			C7.188,185.871,0,220.363,0,256.001c0,68.381,26.629,132.667,74.981,181.019S187.62,512,255.999,512
			c36.476,0,71.713-7.518,104.73-22.342c31.889-14.317,60.099-34.687,83.846-60.54C447.632,425.789,447.413,420.613,444.084,417.556
			z"/>
	</g>
</g>
<g>
	<g>
		<path d="M255.999,150.595c-58.121,0-105.406,47.286-105.406,105.406s47.284,105.406,105.406,105.406
			s105.406-47.286,105.406-105.406S314.121,150.595,255.999,150.595z M255.999,345.039c-49.097,0-89.039-39.943-89.039-89.039
			c0-49.097,39.943-89.039,89.039-89.039c49.097,0,89.039,39.943,89.039,89.039C345.039,305.096,305.096,345.039,255.999,345.039z"
			/>
	</g>
</g>
<g>
</g>
<g>
</g>
<g>
</g>
<g>
</g>
<g>
</g>
<g>
</g>
<g>
</g>
<g>
</g>
<g>
</g>
<g>
</g>
<g>
</g>
<g>
</g>
<g>
</g>
<g>
</g>
<g>
</g>
</svg>
